<?xml version="1.0" encoding="UTF-8" standalone="no"?>
<!-- Generator: Adobe Illustrator 19.0.0, SVG Export Plug-In . SVG Version: 6.00 Build 0)  -->

<svg
   xmlns:dc="http://purl.org/dc/elements/1.1/"
   xmlns:cc="http://creativecommons.org/ns#"
   xmlns:rdf="http://www.w3.org/1999/02/22-rdf-syntax-ns#"
   xmlns:svg="http://www.w3.org/2000/svg"
   xmlns="http://www.w3.org/2000/svg"
   xmlns:sodipodi="http://sodipodi.sourceforge.net/DTD/sodipodi-0.dtd"
   xmlns:inkscape="http://www.inkscape.org/namespaces/inkscape"
   version="1.1"
   id="Capa_1"
   x="0px"
   y="0px"
   viewBox="0 0 512 512"
   style="enable-background:new 0 0 512 512;"
   xml:space="preserve"
   sodipodi:docname="facebook.svg"
   inkscape:version="0.92.4 (f8dce91, 2019-08-02)"><metadata
   id="metadata132"><rdf:RDF><cc:Work
       rdf:about=""><dc:format>image/svg+xml</dc:format><dc:type
         rdf:resource="http://purl.org/dc/dcmitype/StillImage" /><dc:title></dc:title></cc:Work></rdf:RDF></metadata><defs
   id="defs130" /><sodipodi:namedview
   pagecolor="#ffffff"
   bordercolor="#666666"
   borderopacity="1"
   objecttolerance="10"
   gridtolerance="10"
   guidetolerance="10"
   inkscape:pageopacity="0"
   inkscape:pageshadow="2"
   inkscape:window-width="1600"
   inkscape:window-height="780"
   id="namedview128"
   showgrid="false"
   inkscape:zoom="1.1699219"
   inkscape:cx="263.50755"
   inkscape:cy="257.60045"
   inkscape:window-x="0"
   inkscape:window-y="27"
   inkscape:window-maximized="1"
   inkscape:current-layer="g93" />
<g
   id="g95">
	<g
   id="g93">
		<path
   d="M288,176v-64c0-17.664,14.336-32,32-32h32V0h-64c-53.024,0-96,42.976-96,96v80h-64v80h64v256h96V256h64l32-80H288z"
   id="path91" />
	<path
   style="fill:#ffffff;stroke-width:0.85475791"
   d="M 192.22073,383.72442 V 255.93811 h -32.05342 -32.05342 v -39.74624 -39.74625 h 32.05342 32.05342 l 0.002,-42.09683 c 10e-4,-25.44787 0.37526,-45.139274 0.94515,-49.789645 C 197.58866,48.488197 222.59511,17.499148 256.75496,5.7598342 270.3748,1.0792644 271.20892,1.00224 312.52791,0.60968163 l 38.6778,-0.36746519 V 39.993262 79.744307 l -19.87312,0.270524 c -19.45997,0.2649 -19.97397,0.317801 -24.724,2.544529 -6.78996,3.18301 -12.15622,8.436138 -15.44968,15.123986 l -2.77791,5.640924 -0.24007,36.56067 -0.24006,36.56068 h 47.46544 c 26.10599,0 47.46544,0.28661 47.46544,0.63692 0,0.35029 -7.0197,18.23106 -15.59933,39.73502 l -15.59933,39.0981 -31.83973,0.0112 -31.83974,0.0112 v 127.78631 127.78631 h -47.86644 -47.86645 z"
   id="path149"
   inkscape:connector-curvature="0" /></g>
</g>
<g
   id="g97">
</g>
<g
   id="g99">
</g>
<g
   id="g101">
</g>
<g
   id="g103">
</g>
<g
   id="g105">
</g>
<g
   id="g107">
</g>
<g
   id="g109">
</g>
<g
   id="g111">
</g>
<g
   id="g113">
</g>
<g
   id="g115">
</g>
<g
   id="g117">
</g>
<g
   id="g119">
</g>
<g
   id="g121">
</g>
<g
   id="g123">
</g>
<g
   id="g125">
</g>
</svg>