<?xml version="1.0" encoding="UTF-8" standalone="no"?>
<svg
   xmlns:dc="http://purl.org/dc/elements/1.1/"
   xmlns:cc="http://creativecommons.org/ns#"
   xmlns:rdf="http://www.w3.org/1999/02/22-rdf-syntax-ns#"
   xmlns:svg="http://www.w3.org/2000/svg"
   xmlns="http://www.w3.org/2000/svg"
   xmlns:sodipodi="http://sodipodi.sourceforge.net/DTD/sodipodi-0.dtd"
   xmlns:inkscape="http://www.inkscape.org/namespaces/inkscape"
   id="Bold"
   enable-background="new 0 0 24 24"
   height="512"
   viewBox="0 0 24 24"
   width="512"
   version="1.1"
   sodipodi:docname="instagram.svg"
   inkscape:version="0.92.4 (f8dce91, 2019-08-02)">
  <metadata
     id="metadata2426">
    <rdf:RDF>
      <cc:Work
         rdf:about="">
        <dc:format>image/svg+xml</dc:format>
        <dc:type
           rdf:resource="http://purl.org/dc/dcmitype/StillImage" />
        <dc:title></dc:title>
      </cc:Work>
    </rdf:RDF>
  </metadata>
  <defs
     id="defs2424" />
  <sodipodi:namedview
     pagecolor="#ffffff"
     bordercolor="#666666"
     borderopacity="1"
     objecttolerance="10"
     gridtolerance="10"
     guidetolerance="10"
     inkscape:pageopacity="0"
     inkscape:pageshadow="2"
     inkscape:window-width="1600"
     inkscape:window-height="780"
     id="namedview2422"
     showgrid="false"
     inkscape:zoom="0.4609375"
     inkscape:cx="-551.05085"
     inkscape:cy="186.57627"
     inkscape:window-x="0"
     inkscape:window-y="27"
     inkscape:window-maximized="1"
     inkscape:current-layer="Bold" />
  <path
     d="m12.004 5.838c-3.403 0-6.158 2.758-6.158 6.158 0 3.403 2.758 6.158 6.158 6.158 3.403 0 6.158-2.758 6.158-6.158 0-3.403-2.758-6.158-6.158-6.158zm0 10.155c-2.209 0-3.997-1.789-3.997-3.997s1.789-3.997 3.997-3.997 3.997 1.789 3.997 3.997c.001 2.208-1.788 3.997-3.997 3.997z"
     id="path2415" />
  <path
     d="m16.948.076c-2.208-.103-7.677-.098-9.887 0-1.942.091-3.655.56-5.036 1.941-2.308 2.308-2.013 5.418-2.013 9.979 0 4.668-.26 7.706 2.013 9.979 2.317 2.316 5.472 2.013 9.979 2.013 4.624 0 6.22.003 7.855-.63 2.223-.863 3.901-2.85 4.065-6.419.104-2.209.098-7.677 0-9.887-.198-4.213-2.459-6.768-6.976-6.976zm3.495 20.372c-1.513 1.513-3.612 1.378-8.468 1.378-5 0-7.005.074-8.468-1.393-1.685-1.677-1.38-4.37-1.38-8.453 0-5.525-.567-9.504 4.978-9.788 1.274-.045 1.649-.06 4.856-.06l.045.03c5.329 0 9.51-.558 9.761 4.986.057 1.265.07 1.645.07 4.847-.001 4.942.093 6.959-1.394 8.453z"
     id="path2417" />
  <circle
     cx="18.406"
     cy="5.595"
     r="1.439"
     id="circle2419" />
  <path
     style="fill:#ffffff;stroke:#000000;stroke-width:2.16949153;stroke-opacity:1"
     d="m 223.89153,382.24662 c -57.67465,-15.48386 -97.7027,-66.96072 -97.59506,-125.50921 0.0677,-36.84406 12.35608,-66.15918 38.76873,-92.48686 51.87796,-51.71106 130.75887,-51.652 182.54757,0.13669 32.26296,32.26297 44.96188,74.31121 35.72684,118.29751 -9.98235,47.54576 -50.00702,88.69217 -97.06746,99.78791 -17.15449,4.04462 -46.87425,3.93693 -62.38062,-0.22604 z m 52.7629,-43.14476 c 17.57064,-4.57657 28.71573,-10.77388 40.41478,-22.47292 48.89151,-48.89151 21.02664,-134.45013 -47.37559,-145.46599 -67.58649,-10.88448 -120.48835,58.63749 -91.59786,120.37505 17.98363,38.43015 58.51979,57.99266 98.55867,47.56386 z"
     id="path2971"
     inkscape:connector-curvature="0"
     transform="scale(0.046875)" />
  <path
     style="fill:#ffffff;stroke:#000000;stroke-width:2.16949153;stroke-opacity:1"
     d="M 380.24913,145.46104 C 365.1955,137.785 359.2258,121.52363 366.12449,106.98572 c 5.11186,-10.772434 14.50872,-16.282669 27.78498,-16.292864 9.37939,-0.0072 11.50221,0.933783 18.98305,8.414621 7.48084,7.480843 8.42183,9.603663 8.41462,18.983053 -0.01,13.09049 -5.49729,22.66214 -15.79244,27.54751 -9.72301,4.61387 -15.95571,4.57021 -25.26557,-0.17701 z"
     id="path2973"
     inkscape:connector-curvature="0"
     transform="scale(0.046875)" />
  <path
     style="fill:#ffffff;stroke:#000000;stroke-width:2.16949153;stroke-opacity:1"
     d="M 147.22448,509.19877 C 99.967458,505.30183 71.316931,493.5212 44.86295,467.10934 17.159331,439.44984 6.7218695,412.69986 2.6118643,358.82483 -0.21316903,321.79354 -0.18995547,185.7772 2.6473613,150.83592 6.8149858,99.512031 18.233589,70.630604 44.874524,44.029457 68.563285,20.376074 95.727944,8.4302544 136.02712,3.9445636 162.08541,1.0440217 352.29473,1.0992205 375.81284,4.0141494 451.65733,13.414616 492.77486,50.789771 506.41152,122.7262 c 2.03774,10.74956 2.76814,46.65946 2.76814,136.09414 0,119.46956 -0.0827,121.81649 -4.96573,141.01695 -11.16975,43.91975 -34.45805,74.55197 -69.88173,91.91877 -24.02082,11.77646 -40.46772,15.07122 -87.8644,17.60169 -46.01071,2.45645 -168.71398,2.35855 -199.24332,-0.15902 z m 242.63315,-47.44296 c 28.50219,-7.11645 50.81454,-23.93721 62.59833,-47.19143 12.29026,-24.25365 13.33387,-36.69803 13.33387,-158.99828 0,-123.5555 -0.72589,-132.45143 -12.86975,-157.719173 -12.1785,-25.339808 -32.49249,-39.935566 -66.6893,-47.916735 -13.97181,-3.260867 -30.22798,-3.71113 -134.13586,-3.715289 -105.22558,-0.0042 -119.85097,0.410132 -132.90074,3.765149 -37.100729,9.538373 -56.80872,28.266895 -67.435304,64.083828 -6.603142,22.25592 -8.384408,61.13352 -7.427545,162.11239 0.861783,90.94493 1.238153,98.76593 5.49882,114.26512 13.260292,48.23748 36.443376,65.95953 97.044429,74.18451 3.57966,0.48586 57.27457,0.64822 119.32203,0.36085 81.37518,-0.37691 115.83649,-1.27729 123.66102,-3.23094 z"
     id="path2975"
     inkscape:connector-curvature="0"
     transform="scale(0.046875)" />
</svg>
