<?xml version="1.0" encoding="UTF-8" standalone="no"?>
<!-- Generator: Adobe Illustrator 19.0.0, SVG Export Plug-In . SVG Version: 6.00 Build 0)  -->

<svg
   xmlns:dc="http://purl.org/dc/elements/1.1/"
   xmlns:cc="http://creativecommons.org/ns#"
   xmlns:rdf="http://www.w3.org/1999/02/22-rdf-syntax-ns#"
   xmlns:svg="http://www.w3.org/2000/svg"
   xmlns="http://www.w3.org/2000/svg"
   xmlns:sodipodi="http://sodipodi.sourceforge.net/DTD/sodipodi-0.dtd"
   xmlns:inkscape="http://www.inkscape.org/namespaces/inkscape"
   version="1.1"
   id="Capa_1"
   x="0px"
   y="0px"
   viewBox="0 0 512 512"
   style="enable-background:new 0 0 512 512;"
   xml:space="preserve"
   sodipodi:docname="twitter.svg"
   inkscape:version="0.92.4 (f8dce91, 2019-08-02)"><metadata
   id="metadata3135"><rdf:RDF><cc:Work
       rdf:about=""><dc:format>image/svg+xml</dc:format><dc:type
         rdf:resource="http://purl.org/dc/dcmitype/StillImage" /><dc:title></dc:title></cc:Work></rdf:RDF></metadata><defs
   id="defs3133" /><sodipodi:namedview
   pagecolor="#ffffff"
   bordercolor="#666666"
   borderopacity="1"
   objecttolerance="10"
   gridtolerance="10"
   guidetolerance="10"
   inkscape:pageopacity="0"
   inkscape:pageshadow="2"
   inkscape:window-width="1600"
   inkscape:window-height="780"
   id="namedview3131"
   showgrid="false"
   inkscape:zoom="0.4609375"
   inkscape:cx="256"
   inkscape:cy="256"
   inkscape:window-x="0"
   inkscape:window-y="27"
   inkscape:window-maximized="1"
   inkscape:current-layer="Capa_1" />
<g
   id="g3098">
	<g
   id="g3096">
		<path
   d="M512,97.248c-19.04,8.352-39.328,13.888-60.48,16.576c21.76-12.992,38.368-33.408,46.176-58.016    c-20.288,12.096-42.688,20.64-66.56,25.408C411.872,60.704,384.416,48,354.464,48c-58.112,0-104.896,47.168-104.896,104.992    c0,8.32,0.704,16.32,2.432,23.936c-87.264-4.256-164.48-46.08-216.352-109.792c-9.056,15.712-14.368,33.696-14.368,53.056    c0,36.352,18.72,68.576,46.624,87.232c-16.864-0.32-33.408-5.216-47.424-12.928c0,0.32,0,0.736,0,1.152    c0,51.008,36.384,93.376,84.096,103.136c-8.544,2.336-17.856,3.456-27.52,3.456c-6.72,0-13.504-0.384-19.872-1.792    c13.6,41.568,52.192,72.128,98.08,73.12c-35.712,27.936-81.056,44.768-130.144,44.768c-8.608,0-16.864-0.384-25.12-1.44    C46.496,446.88,101.6,464,161.024,464c193.152,0,298.752-160,298.752-298.688c0-4.64-0.16-9.12-0.384-13.568    C480.224,136.96,497.728,118.496,512,97.248z"
   id="path3094" />
	</g>
</g>
<g
   id="g3100">
</g>
<g
   id="g3102">
</g>
<g
   id="g3104">
</g>
<g
   id="g3106">
</g>
<g
   id="g3108">
</g>
<g
   id="g3110">
</g>
<g
   id="g3112">
</g>
<g
   id="g3114">
</g>
<g
   id="g3116">
</g>
<g
   id="g3118">
</g>
<g
   id="g3120">
</g>
<g
   id="g3122">
</g>
<g
   id="g3124">
</g>
<g
   id="g3126">
</g>
<g
   id="g3128">
</g>
<path
   style="fill:#ffffff;stroke:#000000;stroke-width:2.16949153;stroke-opacity:1"
   d="M 131.68814,461.45697 C 94.053025,457.7408 49.747528,443.96865 17.789831,426.05225 L 5.8576271,419.36271 35.145763,417.96011 C 77.502557,415.93164 110.5344,405.31545 143.97927,382.98184 l 13.45878,-8.98745 -16.12919,-2.94858 c -32.41801,-5.92633 -60.732103,-26.21296 -75.30218,-53.95289 -3.848081,-7.32635 -6.996511,-13.6979 -6.996511,-14.15901 0,-0.46112 3.960355,-0.46071 8.800786,8.9e-4 11.895971,1.13447 36.758535,-1.67354 36.758535,-4.15154 0,-1.09826 -1.73601,-1.99682 -3.85781,-1.99682 -6.558427,0 -33.604014,-14.23709 -43.679097,-22.99316 -18.138739,-15.76403 -34.903769,-49.10175 -34.903769,-69.4071 v -7.33304 l 10.893385,4.29378 c 5.991364,2.36157 16.471381,4.94935 23.288926,5.75062 l 12.395539,1.45685 -14.076051,-13.91787 C 22.620467,162.98608 13.741284,119.98794 30.953335,79.977452 L 35.26124,69.963453 57.485295,91.787279 c 34.236374,33.619821 74.665145,58.209481 118.677415,72.182201 21.21798,6.73614 55.77663,13.49493 69.0015,13.49493 h 7.49115 l -1.44529,-12.77474 C 246.59918,123.9348 269.5327,80.740215 305.76039,61.945833 325.4702,51.720687 339.8881,48.634757 361.40767,50.035385 c 22.30071,1.451468 38.89491,7.682629 57.04533,21.42063 l 14.13359,10.697665 16.21695,-4.449056 c 8.91932,-2.446981 22.97988,-7.670307 31.24569,-11.607393 8.2658,-3.937085 15.02874,-6.742006 15.02874,-6.233159 0,0.508848 -3.10116,6.743546 -6.89146,13.854883 -4.28503,8.039531 -12.69545,18.309313 -22.23729,27.153475 l -15.34583,14.22378 9.76271,-1.61429 c 5.36949,-0.88786 17.56859,-3.86271 27.10908,-6.61078 9.54049,-2.74807 17.73266,-4.6102 18.20479,-4.13806 1.62338,1.62339 -15.20566,20.4551 -31.33271,35.06132 l -16.15065,14.62758 -0.009,18.48732 c -0.0371,78.67017 -42.06366,169.32453 -102.41779,220.92276 -52.2593,44.67777 -110.52186,67.15214 -182.86162,70.53757 -11.93221,0.55842 -30.48136,0.14774 -41.22034,-0.91266 z"
   id="path3680"
   inkscape:connector-curvature="0" /></svg>